<svg width="30" height="30" viewBox="0 0 30 30" fill="none" xmlns="http://www.w3.org/2000/svg">
<g clip-path="url(#clip0)" filter="url(#filter0_d)">
<path d="M14.94 9.0504C15.7472 7.1372 17.5912 5.8004 19.736 5.8004C22.6252 5.8004 24.706 8.272 24.9676 11.2176C24.9676 11.2176 25.1088 11.9488 24.798 13.2652C24.3748 15.058 23.38 16.6508 22.0388 17.8664L14.94 24.2L7.9608 17.866C6.6196 16.6508 5.6248 15.0576 5.2016 13.2648C4.8908 11.9484 5.032 11.2172 5.032 11.2172C5.2936 8.2716 7.3744 5.8 10.2636 5.8C12.4088 5.8 14.1328 7.1372 14.94 9.0504Z" fill="#D75A4A"/>
</g>
<defs>
<filter id="filter0_d" x="0" y="0" width="30" height="30" filterUnits="userSpaceOnUse" color-interpolation-filters="sRGB">
<feFlood flood-opacity="0" result="BackgroundImageFix"/>
<feColorMatrix in="SourceAlpha" type="matrix" values="0 0 0 0 0 0 0 0 0 0 0 0 0 0 0 0 0 0 127 0"/>
<feOffset/>
<feGaussianBlur stdDeviation="2.5"/>
<feColorMatrix type="matrix" values="0 0 0 0 0 0 0 0 0 0 0 0 0 0 0 0 0 0 0.1 0"/>
<feBlend mode="normal" in2="BackgroundImageFix" result="effect1_dropShadow"/>
<feBlend mode="normal" in="SourceGraphic" in2="effect1_dropShadow" result="shape"/>
</filter>
<clipPath id="clip0">
<rect width="20" height="20" fill="white" transform="translate(5 5)"/>
</clipPath>
</defs>
</svg>
