<svg height="512" viewBox="0 0 60 61" width="512" xmlns="http://www.w3.org/2000/svg"><g id="020---Astronaut-Fishing" fill="none"><g id="Icons" transform="translate(1 2)"><path id="Shape" d="m26.1 15.36c-.15.34-.31.67-.49 1-4.11 2.55-10.31 2.08-13.61-1.06-1.2688994-1.0678285-2.00138148-2.6415781-2.00138148-4.3 0-1.65842195.73248208-3.23217146 2.00138148-4.3 3.38-3.19 9.6-3.56 13.59-1.06 1.6937069 2.97816601 1.8827413 6.5809401.51 9.72z" fill="#02a9f4"/><path id="Shape" d="m25.59 5.64c-2.2875113-1.34528017-4.9590598-1.88733348-7.59-1.54 1.6249571.16804941 3.1925095.69398202 4.59 1.54 1.6937069 2.97816601 1.8827413 6.5809401.51 9.72-.15.34-.31.67-.49 1-1.4055379.8460369-2.9788356 1.3750199-4.61 1.55 2.6350674.3388893 5.3080987-.2062684 7.6-1.55.18-.32.34-.65.49-1 1.3757955-3.1374994 1.1904699-6.74023027-.5-9.72z" fill="#0377bc"/><path id="Shape" d="m25.6 16.36c-1.240703 2.2251816-3.2223068 3.9449306-5.6 4.86-2.6320709 1.0700351-5.5779291 1.0700351-8.21 0l-.13-.06c-3.87333073-1.6574825-6.45969828-5.3816965-6.66-9.59-.00997925-.189869-.00997925-.380131 0-.57.01274887-4.99738191 3.39257909-9.3581874 8.2287958-10.61715396 4.8362166-1.25896655 9.9133595.90031511 12.3612042 5.25715396-3.99-2.5-10.21-2.13-13.59 1.06-1.2688994 1.06782854-2.00138148 2.64157805-2.00138148 4.3 0 1.6584219.73248208 3.2321715 2.00138148 4.3 3.3 3.14 9.5 3.61 13.6 1.06z" fill="#f5f5f5"/><g fill="#cfd8dc"><path id="Shape" d="m21.6 4.18c1.4165477.21819911 2.7759593.71438435 4 1.46-1.9244151-3.49742147-5.6081504-5.66161598-9.6-5.64-.4853764.00107176-.9700167.03783759-1.45.11 2.7909086.3851789 5.3208198 1.84570925 7.05 4.07z"/><path id="Shape" d="m21.62 17.82c-.3089938.3849347-.6430529.7490592-1 1.09-1.0374756 1.0075891-2.2691286 1.7935334-3.62 2.31-.8243189.3222988-1.6834797.5471573-2.56.67 1.8800988.2600839 3.7955068.0292703 5.56-.67 2.3665267-.9210161 4.3367739-2.6401188 5.57-4.86-1.2103537.7365103-2.5515945 1.23226-3.95 1.46z"/><path id="Shape" d="m25.48 25.52c-1.43 1.3-2.79 2.65-4.07 4-.82-1.15 0-2.9-.18-4.28-.1730775-1.3886549-.5716506-2.7397503-1.18-4 1.3473086-.5176674 2.5754595-1.3035479 3.61-2.31 1.34 1.7 1.58 4.56 1.82 6.59z"/></g><path id="Shape" d="m7.69 33.47c-.40261129.2853731-.78671578.5959967-1.15.93l-1.94-.76c-.99211719-.393589-1.70040588-1.2846619-1.86-2.34l-2.35-15.69c-.22405658-1.48989.69168272-2.9148488 2.14-3.33l2.47-.71c.08604282 1.7088766.57244976 3.3736215 1.42 4.86-.39.65-.38.93-.67 2.71-.22764699 1.3335236-.14899648 2.7013584.23 4v7.36c.009234 1.2215055.65824445 2.3487342 1.71 2.97z" fill="#7f8e94"/><path id="Shape" d="m20.7 30.29c-.07.13-.14.25-.22.37-.5420557.842529-1.4781967 1.3483471-2.48 1.34-.93 0-.88-.09-7.38-3.33-3.5331262-1.767844-5.50025595-5.6331525-4.85-9.53.29-1.78.28-2.06.67-2.71 1.18899304 2.0962265 3.03349093 3.743978 5.25 4.69.1613012.9434956.7631448 1.753384 1.62 2.18l6 3c.5037009.2514648.9264792.6395891 1.22 1.12.5524657.8618267.6168615 1.9489797.17 2.87z" fill="#cfd8dc"/><path id="Shape" d="m21 32.5v9.9c.0229769 1.6799759-1.1317218 3.1473186-2.77 3.52-1.0331243.2241586-2.1121714-.032052-2.9342528-.6967136-.8220815-.6646616-1.2985817-1.6661275-1.2957472-2.7232864v-6.5c.0137136-.4706972-.3028167-.8871845-.76-1 .1 0-4.62-1.14-4.85-1.22-.24561788-.0902841-.480402-.2076762-.7-.35-1.05324887-.6317188-1.69551846-1.7718423-1.69-3l-.00003528-7.3c.70024243 2.410051 2.37496325 4.418266 4.62003528 5.54 6.5 3.24 6.45 3.33 7.38 3.33.9998598.0105307 1.935581-.4912875 2.48-1.33.3384926.5504991.5184361 1.1837616.52 1.83z" fill="#f5f5f5"/><path id="Shape" d="m20.7 30.29c.4483781-.9104849.3954552-1.9878438-.14-2.85-.2935208-.4804109-.7162991-.8685352-1.22-1.12l-6-3c-.8568552-.426616-1.4586988-1.2365044-1.62-2.18l.13.06c2.6320709 1.0700351 5.5779291 1.0700351 8.21 0 .6083494 1.2602497 1.0069225 2.6113451 1.18 4 .13 1.38-.64 3.13.18 4.28-.26.32-.48.52-.72.81z" fill="#f5f5f5"/><path id="Shape" d="m52.43 15c-10.61 2.36-19.52 9.18-24.77 14-1.93 1.78-4.73 4.84-6.66 7v-3.5c-.0015639-.6462384-.1815074-1.2795009-.52-1.83.08-.12.15-.24.22-.37.24-.25.46-.49.71-.74 1.28-1.38 2.64-2.73 4.07-4 7.41-6.82 16.52-12.39 26.09-14.51 1.0472596-.1699573 2.0449955.5074229 2.2734623 1.5434929.2284667 1.03607-.3918481 2.0702512-1.4134623 2.3565071z" fill="#a0522d"/><path id="Shape" d="m53 38.92c.33 1.69-1.21 3-3 3-2.28 0-3.74-2-2.61-3.74-3.5610977.6436773-6.390318 3.357644-7.1814594 6.888909-.7911414 3.5312651.6096886 7.1929283 3.5557513 9.294464 2.9460627 2.1015356 6.8642913 2.2341538 9.9457081.336627-1.5821234-.5326587-2.667076-1.991857-2.7215676-3.6603504-.0544917-1.6684935.932938-3.1953741 2.4769346-3.8301294 1.5439966-.6347552 3.3198355-.2438871 4.454633.9804798.0589474-.393835.0857026-.7918188.08-1.19.0067494-3.4253729-1.9315197-6.5576157-5-8.08zm-7.45 11c-1.3807119 0-2.5-1.1192881-2.5-2.5s1.1192881-2.5 2.5-2.5 2.5 1.1192881 2.5 2.5c-.010504.6648331-.2854218 1.2980932-.7639574 1.7597393s-1.1212611.713642-1.7860426.7002607z" fill="#ffdc00"/><path id="Shape" d="m53 38.92c.1334242.6607956-.0434769 1.3462875-.48 1.86 1.5750274 1.6462492 2.4620953 3.8317271 2.48 6.11 1.1113599-.0155356 2.1768115.442645 2.93 1.26.05347-.380903.0768756-.7654238.07-1.15.0067494-3.4253729-1.9315197-6.5576157-5-8.08z" fill="#fec108"/><path id="Shape" d="m51 50.88c-.0176486-1.636343.9830514-3.1114784 2.51-3.7-1.3575429-.598837-2.9350302-.3970246-4.0980969.5242812s-1.7206009 2.4107184-1.4483977 3.869291c.2722031 1.4585726 1.3294159 2.6466364 2.7464946 3.0864278-.9842775.6072428-2.0783724 1.01498-3.22 1.2.4980144.0925913 1.0034517.139453 1.51.14 1.6642641.0014678 3.2957488-.4626913 4.71-1.34-1.6183272-.5513682-2.707316-2.0703268-2.71-3.78z" fill="#fec108"/><path id="Shape" d="m50 41.88c-2.28 0-3.74-2-2.61-3.74.5316845-.0925538 1.0703202-.1393917 1.61-.14 1.3856072-.0086298 2.7544958.3027924 4 .91.28 1.7-1.26 2.97-3 2.97z" fill="#ff9801"/><path id="Shape" d="m57.92 48.15c-.3488774 2.6941832-1.896059 5.0866184-4.21 6.51-1.5821234-.5326587-2.667076-1.991857-2.7215676-3.6603504-.0544917-1.6684935.932938-3.1953741 2.4769346-3.8301294 1.5439966-.6347552 3.3198355-.2438871 4.454633.9804798z" fill="#ff9801"/><path id="Shape" d="m28 39.4v1.16c-.010718 1.2504296-.687718 2.4001562-1.7759808 3.0160889-1.0882627.6159328-2.4224552.6044968-3.5-.03-1.0775447-.6344968-1.7347372-1.7956593-1.7240192-3.0460889v1.9c.0229769 1.6799759-1.1317218 3.1473186-2.77 3.52-1.0331243.2241586-2.1121714-.032052-2.9342528-.6967136-.8220815-.6646616-1.2985817-1.6661275-1.2957472-2.7232864v-6.5c.0137136-.4706972-.3028167-.8871845-.76-1 .1 0-4.62-1.14-4.85-1.22-.24561788-.0902841-.480402-.2076762-.7-.35-.40261129.2853731-.78671578.5959967-1.15.93-1.1850666 1.0387801-2.17407818 2.2818186-2.92 3.67 1.9806933-.3997562 3.98498441.5697448 4.90114389 2.3707453s.5195185 3.991843-.96991627 5.3573227c-1.48943476 1.3654798-3.70641075 1.5707416-5.42122762.501932.57834742 4.2345293 3.12624958 7.94568 6.87022539 10.0068372 3.74397581 2.0611573 8.24244231 2.2292179 12.12977461.4531628-1.0465519-1.0478032-1.4285462-2.5880861-.9928751-4.0034846.4356712-1.4153985 1.6177038-2.4742613 3.0723246-2.7521832 1.4546208-.2779218 2.9437593.2705833 3.8705505 1.4256678 2.197537-3.6224356 2.5391625-8.0747068.92-11.99zm-15 14.6c-1.6568542 0-3-1.3431458-3-3s1.3431458-3 3-3 3 1.3431458 3 3-1.3431458 3-3 3z" fill="#7f8e94"/><path id="Shape" d="m2.13 46.32c0 .21.07.41.11.61.25921774-.0418721.51374906-.108854.76-.2-.30607563-.0995675-.59837971-.23732-.87-.41z" fill="#545c60"/><path id="Shape" d="m28 39.4v1.16c-.0260922 1.3286159-.8002601 2.5285762-2 3.1.1494583 2.2082235-.2562032 4.4187347-1.18 6.43.8913025.1778997 1.6954455.654037 2.28 1.35 2.2076962-3.6386215 2.5422042-8.1135952.9-12.04z" fill="#545c60"/><path id="Shape" d="m28 30.5v10.06c-.0165685 1.9329966-1.5970034 3.4865685-3.53 3.47s-3.4865685-1.5970034-3.47-3.53v-4.5c1.93-2.17 4.73-5.23 6.66-7 .2228346.468715.3389554.9810127.34 1.5z" fill="#f5f5f5"/><path id="Shape" d="m27.66 29c-.78.72-1.71 1.66-2.66 2.65v8.92c-.03442 1.3235679-.8065977 2.5165825-2 3.09.4672344.2282175.9800128.3478658 1.5.35 1.9092475-.0104712 3.4620602-1.5411008 3.5-3.45v-10.06c-.0010446-.5189873-.1171654-1.031285-.34-1.5z" fill="#cfd8dc"/><path id="Shape" d="m9 42.5c-.00192966 1.6317484-.8870337 3.1345994-2.31314562 3.9275758-1.42611193.7929764-3.16975063.7518135-4.55685438-.1075758-.08874011-.6025671-.13219515-1.2109376-.13-1.82-.00821305-2.237732.54536645-4.4417349 1.61-6.41 1.32265694-.2668636 2.69526185.073869 3.73957019.9283031 1.04430835.8544341 1.6500967 2.1323869 1.65042981 3.4816969z" fill="#545c60"/><path id="Shape" d="m27.07 51.44c-1.3935892 2.340421-3.4649494 4.2025529-5.94 5.34-1.0465519-1.0478032-1.4285462-2.5880861-.9928751-4.0034846.4356712-1.4153985 1.6177038-2.4742613 3.0723246-2.7521832 1.4546208-.2779218 2.9437593.2705833 3.8705505 1.4256678z" fill="#545c60"/><circle id="Oval" cx="45.5" cy="47.38" fill="#ff9801" r="2.5"/><path id="Shape" d="m27.08 51.45-.01-.01" fill="#7f8e94"/><circle id="Oval" cx="13" cy="51" fill="#545c60" r="3"/></g><g id="Stroke" fill="#000"><path id="Shape" d="m19 9c0 .55228475.4477153 1 1 1 .16 0 4 0 4 3 0 .5522847.4477153 1 1 1s1-.4477153 1-1c0-4-3.92-5-6-5-.5522847 0-1 .44771525-1 1z"/><path id="Shape" d="m51 29.75v-11.12c.87-.26 1.75-.5 2.65-.7 1.1906931-.2516202 2.1114017-1.1976393 2.3306467-2.3947167.2192449-1.1970775-.3064194-2.4080001-1.3306467-3.0652833-.6678543-.4249589-1.4765999-.5687359-2.25-.4-9.3 2.07-18 7.27-25.11 13.45-.1761448-1.5791205-.6440818-3.1117838-1.38-4.52 3.5746563-3.9632187 4.1021749-9.8110384 1.2944806-14.34999451-2.8076943-4.53895612-8.2757394-6.67805744-13.4180635-5.2491516-5.14232425 1.42890584-8.72290978 6.0823646-8.7864171 11.41914611l-1.75.5c-1.92975234.5548876-3.14906694 2.4544514-2.85 4.44l2.35 15.69c.21279217 1.4071175 1.15717708 2.5952146 2.48 3.12l.5.2c-8.41 9.23-1.73 24.23 10.77 24.23 5.0539163-.0266811 9.7309018-2.6776041 12.35-7 .0615307-.0665687.1091303-.1447681.14-.23 2.2585073-3.8174304 2.6275681-8.4639059 1-12.59 0-9.77.06-9-.18-9.94 4.59-4.17 11.28-9.19 19.18-12v10.51l-7.09 13.4c-1.2402796 1.697843-1.9059476 3.7473995-1.9 5.85-.011053 4.3395772 2.778038 8.1909943 6.9044847 9.5343073s8.6483218-.1281106 11.1940478-3.6425568c2.5457259-3.5144461 2.5342001-8.2696863-.0285325-11.7717505zm1.79-15.75c.3921496-.081067.7948462.07962 1.0234601.4083886.228614.3287687.2390565.7622151.0265399 1.1016114-.38.6-.63.27-4.21 1.41-9.08 2.95-16.63 8.73-21.63 13.34-1.48 1.37-3.41 3.41-5 5.14.0884407-.8993232-.0348478-1.806863-.36-2.65 7.67-8.46 18.81-16.21 30.15-18.75zm-38.31 22-4.76-1.12c-1.019982-.3542235-1.70805612-1.3103265-1.72-2.39v-3.41c1.73 2 3.1 2.45 9.21 5.49 1.1990835.6135803 2.6285218.5720926 3.79-.11v9.94c.0276142 1.3807119-1.0692881 2.5223858-2.45 2.55s-2.5223858-1.0692881-2.55-2.45v-6.5c-.0052882-.9153741-.631361-1.7103218-1.52-1.93zm6-11.58c.4461793 1.0074481.700529 2.0892819.75 3.19-.33-.22 0 0-5.39-2.74 1.5533718.1748447 3.1259235.04578 4.63-.38zm-8.61-.67c.3208493 1.026799 1.0417626 1.8810812 2 2.37l6 3c.4754146.2379865.8365087.6554695 1.0035064 1.1602154.1669977.5047458.1261544 1.0552119-.1135064 1.5297846-.4953708.9786313-1.6865246 1.3756826-2.67.89l-6-3c-3.1196318-1.5572336-4.87140353-4.9555898-4.33-8.4l.09-.57c1.09760003 1.3077447 2.4656937 2.3619615 4.01 3.09zm11.13 14.63c1.28-1.44 3.26-3.61 5-5.36v9.53c0 1.3807119-1.1192881 2.5-2.5 2.5s-2.5-1.1192881-2.5-2.5zm.06-9c.3742785-1.9225567.1182633-3.9145658-.73-5.68.7292579-.3618508 1.4195278-.797458 2.06-1.3.5644392 1.5049841.9014733 3.0856742 1 4.69-.75.79-1.54 1.54-2.33 2.34zm2.8-21c1.4157154 2.6741602 1.5335465 5.8482338.32 8.62-.1046183.2294233-.2214524.4530771-.35.67-3.84 2.23-9.3 1.64-12.14-1.06-1.0683359-.8775588-1.6875096-2.1874476-1.6875096-3.57s.6191737-2.6924412 1.6875096-3.57c3-2.87 8.52-3.24 12.17-1.09zm-16.75-1.53c1.6641584-2.13153275 4.1206444-3.49820873 6.8092624-3.78836092s5.3801279.52095872 7.4607376 2.24836092c-3.86-.84-8.27 0-11.07 2.66-6.28 5.93 1 14.89 11 12.72-3.9417467 3.1058399-9.5749473 2.8092055-13.1687028-.6934407-3.59375552-3.5026462-4.03491543-9.1263744-1.0312972-13.1465593zm-4.38 26.3-2.35-15.69c-.15002402-.9913198.45712951-1.9405317 1.42-2.22l1.35-.38c.20268628 1.2529939.59732074 2.4672538 1.17 3.6-.28963199.8195978-.47116213 1.6734618-.54 2.54-.23447529 1.4125944-.15941253 2.8592583.22 4.24v7.25c.00445585.9156811.28692217 1.8084141.81 2.56l-.81-.34c-.67306535-.2537795-1.15800412-.8494524-1.27-1.56zm4.27 11.35c.00186595 1.1887038-.60143196 2.2966178-1.60095064 2.9400326-.99951869.6434149-2.25779702.7338436-3.33904936.2399674-.22371192-2.2947241.1915976-4.6066138 1.2-6.68.97060068-.0727551 1.92731319.2642934 2.63798132.9293571.71066812.6650638 1.11033549 1.5973548 1.10201868 2.5706429zm-4.52 5.39c2.98509907.5357162 5.8392838-1.4499009 6.375-4.435s-1.44990093-5.8392838-4.435-6.375c.67627346-.9169041 1.4773523-1.7348123 2.38-2.43.53.22-.41 0 5.2 1.36v6.49c.0027784 2.1838995 1.5765237 4.049063 3.7288137 4.4192964 2.15229.3702333 4.2588195-.8618553 4.9911863-2.9192964.9128046.7577902 2.0914173 1.1177914 3.2718557.9993716 1.1804385-.1184198 2.264055-.7053644 3.0081443-1.6293716.2011208 2.2259701-.2031335 4.4649165-1.17 6.48-1.8956481-1.2358667-4.3850266-1.0444877-6.0694927.466612-1.6844662 1.5110996-2.1440378 3.9651626-1.1205073 5.983388-3.2560488 1.1454589-6.8410938.891252-9.9029335-.7021931-3.0618398-1.5934451-5.32701351-4.3838136-6.2570665-7.7078069zm17.94 7.62c-.6991527-1.2259695-.4492539-2.7734814.6002484-3.7170706 1.0495023-.9435893 2.6147834-1.028074 3.7597516-.2029294-1.1254401 1.6308296-2.6190798 2.973735-4.36 3.92zm26.64-16.45c1.3263436-.1613863 2.6719392.0175676 3.91.52-.2839747.8451309-1.1123617 1.3835825-2 1.3-1.1 0-2.22-.8-1.91-1.82zm5-1.17c-2.6059888-1.1799577-5.5940112-1.1799577-8.2 0l4.14-7.75zm-12.06 9.11c-.0015496-3.2612754 1.9767163-6.197022 5-7.42.2590424 1.9801892 2.0066679 3.4219802 4 3.3 1.5959626.0454212 3.066079-.8625919 3.74-2.31 1.8572316 1.3504327 3.0446204 3.4338265 3.26 5.72-2.2299287-.9229974-4.8009057-.1214285-6.1111751 1.9053178s-.9858353 4.7001669.7711751 6.3546822c-2.4489976.8634179-5.1647157.4844639-7.2838006-1.0163889-2.1190848-1.5008528-3.377879-3.9368676-3.3761994-6.5336111zm12.6 6.53c-1.0284316-.5171289-1.6702728-1.5771205-1.6519073-2.7281011.0183655-1.1509807.6936987-2.1899549 1.7381056-2.6740087 1.0444069-.4840537 2.273688-.3278158 3.1638017.4021098-.3984388 2.023242-1.5627479 3.8144866-3.25 5z"/><path id="Shape" d="m46.5 45.88c-1.9329966 0-3.5 1.5670034-3.5 3.5s1.5670034 3.5 3.5 3.5 3.5-1.5670034 3.5-3.5-1.5670034-3.5-3.5-3.5zm0 5c-.8284271 0-1.5-.6715729-1.5-1.5s.6715729-1.5 1.5-1.5 1.5.6715729 1.5 1.5-.6715729 1.5-1.5 1.5z"/><path id="Shape" d="m14 49c-2.209139 0-4 1.790861-4 4s1.790861 4 4 4 4-1.790861 4-4-1.790861-4-4-4zm0 6c-1.1045695 0-2-.8954305-2-2s.8954305-2 2-2 2 .8954305 2 2-.8954305 2-2 2z"/><path id="Shape" d="m36 8c-.5522847 0-1 .44771525-1 1v1h-1c-.5522847 0-1 .4477153-1 1s.4477153 1 1 1h1v1c0 .5522847.4477153 1 1 1s1-.4477153 1-1v-1h1c.5522847 0 1-.4477153 1-1s-.4477153-1-1-1h-1v-1c0-.55228475-.4477153-1-1-1z"/><path id="Shape" d="m41 33v1c0 .5522847.4477153 1 1 1s1-.4477153 1-1v-1h1c.5522847 0 1-.4477153 1-1s-.4477153-1-1-1h-1v-1c0-.5522847-.4477153-1-1-1s-1 .4477153-1 1v1h-1c-.5522847 0-1 .4477153-1 1s.4477153 1 1 1z"/><path id="Shape" d="m54 2c-.5522847 0-1 .44771525-1 1v1h-1c-.5522847 0-1 .44771525-1 1s.4477153 1 1 1h1v1c0 .55228475.4477153 1 1 1s1-.44771525 1-1v-1h1c.5522847 0 1-.44771525 1-1s-.4477153-1-1-1h-1v-1c0-.55228475-.4477153-1-1-1z"/></g></g></svg>