<svg xmlns="http://www.w3.org/2000/svg" viewBox="0 0 80 80"><defs><style>.cls-1{fill:#2ecc71;}.cls-2{opacity:0.2;}.cls-2,.cls-5{isolation:isolate;}.cls-3{fill:#3498db;}.cls-4{fill:none;stroke:#000;stroke-miterlimit:10;stroke-width:2px;}.cls-5{fill:#fff;opacity:0.15;}</style></defs><title>Asset 1</title><g id="Layer_2" data-name="Layer 2"><g id="Layer_1-2" data-name="Layer 1"><path class="cls-1" d="M40,0h0A40,40,0,0,1,80,40V80H40A40,40,0,0,1,0,40H0A40,40,0,0,1,40,0Z"/><path class="cls-2" d="M59.66,34.23,80,52.8V80H50.67l-20-16.68"/><g id="Layer_2-2-2" data-name="Layer 2-2-2"><path class="cls-3" d="M44.45,47a3.31,3.31,0,0,0,.77,0,5.18,5.18,0,0,0,3.14-2.35,4,4,0,0,0,.82-2.46,2.6,2.6,0,0,0-.8-1.93c-.41-.34-.61-.19-2.74-.51-1-.17-1.26-.24-2.43-.39l-1.33-.16c-1.11-.17-1.87-.35-3.73-.63-1-.14-2.42-.34-4.21-.51a11.31,11.31,0,0,0-4.18.27,13.43,13.43,0,0,0,3.94-5.22,18,18,0,0,0,6.2,1.63l0-.12a11.44,11.44,0,0,1-5.66-3.25,1.8,1.8,0,0,0,0-.19c.35-1.51.85-3.63-.19-5.62a3.42,3.42,0,0,0-1.72-1.77,3.73,3.73,0,0,0-3.38.61,3.73,3.73,0,0,1-.45-.44c-.17-.18-2.18-2.42-1.17-4.8a4.83,4.83,0,0,1,2.26-2.26,4.57,4.57,0,0,1,2.29-.5,5.11,5.11,0,0,1,3.2,1.54,8.82,8.82,0,0,1,1.4,1.63c1.2,1.6,2,2.8,2.24,3.12,1.55,2.2,3.47,3.46,6.17,5.26a20.85,20.85,0,0,0,3.61,2c1.46.61,2,.63,3.47,1.12a22.81,22.81,0,0,1,5.11,2.55,16.56,16.56,0,0,1,4.65,4.71A14.21,14.21,0,0,1,63.6,49.94a21,21,0,0,1-5.89,10,21.34,21.34,0,0,1-11.43,5.25A23.74,23.74,0,0,1,34.3,64a12.44,12.44,0,0,1-6-4,13.07,13.07,0,0,1-1.75-3.53A14,14,0,0,1,25.94,53c-.11-1.73-.29-4.53.77-6.44h0a4.89,4.89,0,0,1,2.93-2,4.63,4.63,0,0,1,1.28-.16c.42,0,1.09.15,2.5.42l1.76.34,4.29.84,3.45.68h0A7.77,7.77,0,0,0,44.45,47Z"/><path class="cls-3" d="M49.18,42.14a4,4,0,0,1-.82,2.47,5.42,5.42,0,0,1-2.7,2.23,3,3,0,0,1-1.12.14l-1.6-.32h0l-1.25-.31c-.58-.13-1.15-.26-1.74-.37-1.54-.3-2.33-.43-3.53-.65a52.41,52.41,0,0,0-5.48-.95,2.91,2.91,0,0,0-.59,0,5.41,5.41,0,0,0-2.44.82,3.87,3.87,0,0,0-1.17,1.34,5.41,5.41,0,0,0-.66,1.17,6,6,0,0,1-1.48-3.95,5.34,5.34,0,0,1,1-3.23,7,7,0,0,1,4.17-2.24A11.53,11.53,0,0,1,33.94,38c1.78.16,3.22.36,4.2.51,1.87.26,2.62.46,3.74.62.36.06.72.08,1.33.16,1.17.16,1.41.23,2.43.39,2.13.33,2.32.18,2.74.52A2.62,2.62,0,0,1,49.18,42.14Z"/><path class="cls-3" d="M34.14,30.84a12.37,12.37,0,0,1-.58,1.75,13.47,13.47,0,0,1-3.94,5.21,5.38,5.38,0,0,0-5.18,5.46h0a10.38,10.38,0,0,1-3.31-3.63,4.48,4.48,0,0,1-.76-2.36c0-1.43.95-2.57,1.86-3.72l.06-.06q.6-.63,1.14-1.29l0,0,.57-.7.3-.39a1.56,1.56,0,0,1,.16-.2c.26-.34.49-.67.71-1l1.06-1.46C28,26,27.58,24.91,28.88,23.92l.05,0a3.73,3.73,0,0,1,3.38-.61A3.41,3.41,0,0,1,34,25c1,2,.53,4.11.19,5.62A.38.38,0,0,0,34.14,30.84Z"/><path class="cls-3" d="M24.5,23.81A25,25,0,0,0,27,27.16a29,29,0,0,1-2.35,3.71l-.15.2c-.1.14-.21.27-.31.4s-.37.47-.57.69c0,0,0,0,0,0-.47.55-.72.76-1.15,1.29s-.77.81-1.18,1.2c-.76-1-1.33-1.9-1.75-2.54-.59-.94-1.12-1.87-2.18-3.77-.18-.32-.56-1-1-1.94-.22-.42-.34-.66-.46-.95A10.75,10.75,0,0,1,15,23.27a4.25,4.25,0,0,1,.59-3.47,3.93,3.93,0,0,1,2.62-1.35,4.16,4.16,0,0,1,2.62.62c1,.53,1.44,1.26,2.4,2.69.17.24.29.44.4.63C24.13,23.13,24.44,23.69,24.5,23.81Z"/><path class="cls-4" d="M23.41,32.19c-.47.55-.72.76-1.15,1.29l-.05.07a6.6,6.6,0,0,0-1.87,3.71,4.63,4.63,0,0,0,.76,2.36,10.41,10.41,0,0,0,3.34,3.64h0a5.38,5.38,0,0,1,5.18-5.47,13.4,13.4,0,0,0,3.94-5.21,12.37,12.37,0,0,0,.58-1.75,1.8,1.8,0,0,0,0-.19c.36-1.51.86-3.63-.18-5.62a3.5,3.5,0,0,0-1.72-1.77,3.76,3.76,0,0,0-3.38.61l-.05,0c-1.3,1-.93,2.11-2.62,4.53-.15.23-.58.82-1.07,1.47l-.71,1"/><path class="cls-4" d="M24.45,31.07c-.1.14-.21.27-.31.4-.22.29-.41.51-.57.69"/><path class="cls-4" d="M24.14,31.47q-.27.36-.57.69s0,0,0,0c-.36.44-.75.88-1.15,1.29s-.77.8-1.18,1.2c-.76-1-1.33-1.9-1.75-2.54-.59-.94-1.12-1.87-2.18-3.77-.18-.32-.56-1-1-1.94-.22-.42-.34-.66-.46-.95A10.75,10.75,0,0,1,15,23.27a4.25,4.25,0,0,1,.59-3.47,3.93,3.93,0,0,1,2.62-1.35,4.16,4.16,0,0,1,2.62.62c1,.53,1.44,1.26,2.4,2.69.17.24.29.44.4.63.46.75.78,1.33.84,1.43A25,25,0,0,0,27,27.17a30.2,30.2,0,0,1-2.35,3.71l-.16.2C24.35,31.21,24.24,31.34,24.14,31.47Z"/><path class="cls-4" d="M42.94,46.18a8.87,8.87,0,0,0,1.6.31,2.83,2.83,0,0,0,1.12-.14,5.37,5.37,0,0,0,2.7-2.23,4,4,0,0,0,.83-2.47,2.68,2.68,0,0,0-.8-1.92c-.42-.34-.62-.19-2.75-.52-1-.16-1.26-.23-2.43-.38l-1.33-.16c-1.11-.17-1.87-.35-3.73-.63-1-.15-2.42-.35-4.21-.51a11.33,11.33,0,0,0-4.18.27A6.85,6.85,0,0,0,25.6,40a5.35,5.35,0,0,0-1,3.23,6,6,0,0,0,1.49,3.94A5.7,5.7,0,0,1,26.71,46"/><path class="cls-4" d="M26.71,46a5,5,0,0,1,2.94-2,4.51,4.51,0,0,1,1.27-.15,47,47,0,0,1,5.48,1c1.21.21,2,.35,3.54.65.58.11,1.16.23,1.73.37l1.25.31"/><path class="cls-4" d="M29.22,24.5,29,24.35a3.64,3.64,0,0,1-.45-.43c-.17-.18-2.18-2.42-1.17-4.8a4.83,4.83,0,0,1,2.26-2.26,4.68,4.68,0,0,1,2.29-.5,5.16,5.16,0,0,1,3.2,1.54,8.82,8.82,0,0,1,1.4,1.63c1.2,1.6,2,2.8,2.24,3.12,1.55,2.2,3.47,3.46,6.17,5.26a20.21,20.21,0,0,0,3.61,2c1.46.61,2,.63,3.47,1.12a22.81,22.81,0,0,1,5.11,2.55,16.56,16.56,0,0,1,4.65,4.71A14.21,14.21,0,0,1,63.6,50a21,21,0,0,1-5.89,10,21.34,21.34,0,0,1-11.43,5.25A23.74,23.74,0,0,1,34.3,64a12.44,12.44,0,0,1-6-4,12.93,12.93,0,0,1-1.75-3.53A14,14,0,0,1,25.94,53c-.11-1.73-.29-4.53.77-6.44h0a3.87,3.87,0,0,1,1.17-1.34,5.45,5.45,0,0,1,2.44-.82,2.89,2.89,0,0,1,.59,0c.42,0,1.1.15,2.5.42l1.76.34,4.29.84,3.45.68h0l1.6.32,1.74.34a5.74,5.74,0,0,1-1.11,4.1,6.17,6.17,0,0,1-2.9,2c-1.63.61-3,.45-5.07.2a23.14,23.14,0,0,1-4.71-1.08"/><path class="cls-4" d="M46.8,47.2c1-.27,3.9-.94,6.23.43a11.5,11.5,0,0,1,2.47,2.15,12.47,12.47,0,0,1,1.37,1.85"/><path class="cls-4" d="M33.53,32.52h.15a18.6,18.6,0,0,0,6.2,1.63"/><path class="cls-4" d="M34.21,30.76l.06.07a11.41,11.41,0,0,0,5.65,3.25l.09,0"/></g><path class="cls-5" d="M40,0A40,40,0,0,1,80,40V80H40.6"/></g></g></svg>