<svg width="35" height="35" viewBox="0 0 35 35" fill="none" xmlns="http://www.w3.org/2000/svg">
<circle cx="17.5" cy="17.5" r="17.5" fill="#2AABCC"/>
<path d="M28 13.793V19.8472C28 19.8472 26.7043 20.1025 26.4373 20.136C26.1712 20.1695 25.335 20.4395 24.729 19.857C23.7944 18.9613 20.4739 15.6591 20.4739 15.6591C20.4739 15.6591 19.9013 15.0973 18.982 15.5828C18.1382 16.0276 16.8873 16.6794 16.3648 16.9332C15.377 17.459 14.5584 16.6248 14.5584 15.9895C14.5584 15.4967 14.8659 15.1622 15.3055 14.9162C16.4969 14.1939 19.008 12.7844 20.0539 12.2287C20.6896 11.8906 21.1477 11.8616 22.0205 12.5969C23.0954 13.5009 24.052 14.325 24.052 14.325C24.052 14.325 24.364 14.5854 24.8616 14.4805C26.0835 14.2222 28 13.793 28 13.793ZM14.7833 24.0512C14.9441 23.6381 14.8904 23.176 14.5821 22.859C14.305 22.5754 13.9006 22.5007 13.5149 22.5891C13.6228 22.2066 13.5632 21.7994 13.2847 21.5121C13.0068 21.2293 12.6031 21.1531 12.2175 21.2422C12.3246 20.8603 12.2652 20.4532 11.9865 20.1667C11.5501 19.7191 10.7953 19.7384 10.2995 20.211C9.80622 20.6843 9.49025 21.5418 9.93046 22.0466C10.37 22.5488 10.8749 22.2432 11.2599 22.1555C11.1528 22.5374 10.8319 22.8927 11.2271 23.3926C11.6219 23.8928 12.1715 23.5893 12.5569 23.5024C12.4494 23.8829 12.1426 24.2739 12.5226 24.7374C12.906 25.2024 13.534 24.9546 13.9488 24.8258C13.7887 25.2373 13.4461 25.681 13.8863 26.1781C14.3258 26.6789 15.3416 26.4472 15.8377 25.9738C16.3325 25.5005 16.38 24.7504 15.9448 24.3014C15.6443 23.9933 15.1964 23.9217 14.7833 24.0512ZM23.8363 20.9015C20.2497 17.3149 21.9367 19.0025 20.0066 17.0683C20.0066 17.0683 19.4265 16.4908 18.662 16.8262C18.1253 17.0614 17.4343 17.3819 16.9144 17.6266C16.3431 17.9262 15.9319 18.0189 15.7388 18.0176C14.6344 18.0104 13.7383 17.1227 13.7383 16.0193C13.7383 15.3035 14.1183 14.6803 14.6851 14.3266C15.482 13.7751 17.3165 12.7994 17.3165 12.7994C17.3165 12.7994 16.7576 12.0912 15.5334 12.0912C14.3095 12.0912 11.7525 13.7663 11.7525 13.7663C11.7525 13.7663 11.0271 14.231 9.99305 13.8125L8 13.1184V20.0462C8 20.0462 8.5691 20.2109 9.08046 20.4198C9.19595 20.0904 9.3823 19.7863 9.64081 19.5351C10.4892 18.727 11.8953 18.7186 12.6671 19.5134C12.8997 19.755 13.0619 20.0432 13.1447 20.3618C13.4557 20.4578 13.7374 20.6278 13.9638 20.8611C14.197 21.101 14.3587 21.3909 14.4422 21.7078C14.7528 21.8039 15.0341 21.9746 15.2613 22.208C15.5171 22.4718 15.6875 22.7904 15.767 23.1357C16.0918 23.2302 16.3852 23.4062 16.6216 23.6479C17.0854 24.1243 17.2501 24.7707 17.1503 25.3943C17.1511 25.3943 17.1527 25.3943 17.1534 25.3957C17.161 25.4056 17.4408 25.7175 17.6153 25.8935C17.9572 26.2358 18.5156 26.2358 18.8586 25.8935C19.1993 25.5513 19.2008 24.994 18.8586 24.6502C18.8463 24.6379 17.6249 23.3603 17.7232 23.2613C17.8208 23.1629 19.3769 24.7821 19.4059 24.8117C19.7474 25.1533 20.3054 25.1533 20.6485 24.8117C20.9907 24.4696 20.99 23.9123 20.6485 23.5692C20.6317 23.5532 20.5616 23.4861 20.5356 23.4594C20.5356 23.4594 18.9928 22.085 19.1102 21.9675C19.2291 21.8494 21.1455 23.6379 21.1486 23.6379C21.4931 23.9481 22.0238 23.9458 22.3552 23.6142C22.6777 23.2918 22.6846 22.7818 22.3987 22.4381C22.3927 22.4198 20.9382 20.8998 21.0517 20.7854C21.1668 20.6695 22.606 22.1515 22.6091 22.1545C22.9498 22.4961 23.5086 22.4961 23.8516 22.1545C24.1931 21.813 24.1931 21.255 23.8516 20.9105C23.847 20.9075 23.8409 20.9045 23.8363 20.9015Z" fill="white"/>
</svg>
