<svg width="35" height="35" viewBox="0 0 35 35" fill="none" xmlns="http://www.w3.org/2000/svg">
<circle cx="17.5" cy="17.5" r="17.5" fill="#2AABCC"/>
<path d="M15.2422 17.5859H18.7578V18.7578H15.2422V17.5859Z" fill="white"/>
<path d="M23.2257 18.7578H19.9297V19.3438C19.9297 19.6675 19.6675 19.9297 19.3438 19.9297H14.6562C14.3325 19.9297 14.0703 19.6675 14.0703 19.3438V18.7578H10.7743C10.0167 18.7578 9.34665 18.2749 9.10678 17.5562L7 11.2348V24.0312C7 25.0005 7.78857 25.7891 8.75781 25.7891H25.2422C26.2114 25.7891 27 25.0005 27 24.0312V11.2352L24.8931 17.5562C24.6534 18.2749 23.9833 18.7578 23.2257 18.7578V18.7578Z" fill="white"/>
<path d="M19.3438 8.21094H14.6562C13.687 8.21094 12.8984 8.99951 12.8984 9.96875V10.5547H8.00815L10.2181 17.1854C10.2982 17.4251 10.5219 17.5859 10.7743 17.5859H14.0703V17C14.0703 16.6762 14.3325 16.4141 14.6562 16.4141H19.3438C19.6675 16.4141 19.9297 16.6762 19.9297 17V17.5859H23.2257C23.4781 17.5859 23.7018 17.4251 23.7819 17.1854L25.992 10.5547H21.1016V9.96875C21.1016 8.99951 20.313 8.21094 19.3438 8.21094V8.21094ZM14.0703 10.5547V9.96875C14.0703 9.64542 14.3329 9.38281 14.6562 9.38281H19.3438C19.6671 9.38281 19.9297 9.64542 19.9297 9.96875V10.5547H14.0703Z" fill="white"/>
</svg>
